<mxfile host="app.diagrams.net" agent="Mozilla/5.0 (X11; Ubuntu; Linux x86_64; rv:131.0) Gecko/20100101 Firefox/131.0" version="24.7.16" pages="2">
  <diagram name="Страница — 1" id="t6hJJ-BuAz03yIf88znw">
    <mxGraphModel dx="287" dy="1803" grid="1" gridSize="10" guides="1" tooltips="1" connect="1" arrows="1" fold="1" page="1" pageScale="1" pageWidth="827" pageHeight="1169" math="0" shadow="0">
      <root>
        <mxCell id="0" />
        <mxCell id="1" parent="0" />
        <mxCell id="tXCBi-K8PfVkHzfxkvnE-1" value="&lt;font size=&quot;1&quot;&gt;&lt;span id=&quot;docs-internal-guid-49747214-7fff-b912-0895-c355ea0055af&quot; style=&quot;font-family: Arial, sans-serif; color: rgb(0, 0, 0); background-color: transparent; font-variant: normal; vertical-align: baseline; white-space: pre-wrap; font-size: 14px;&quot;&gt;Платформа для проведения онлайн-конференций и вебинаров&lt;/span&gt;&lt;/font&gt;" style="rounded=0;whiteSpace=wrap;html=1;" parent="1" vertex="1">
          <mxGeometry x="1160" y="170" width="120" height="60" as="geometry" />
        </mxCell>
        <mxCell id="tXCBi-K8PfVkHzfxkvnE-2" value="&lt;div&gt;Это&lt;/div&gt;" style="rhombus;whiteSpace=wrap;html=1;" parent="1" vertex="1">
          <mxGeometry x="1320" y="160" width="80" height="80" as="geometry" />
        </mxCell>
        <mxCell id="tXCBi-K8PfVkHzfxkvnE-3" value="&lt;font style=&quot;font-size: 14px;&quot;&gt;&lt;span id=&quot;docs-internal-guid-01d5fadd-7fff-3363-a5dc-f1946b7d44f7&quot; style=&quot;font-family: Arial, sans-serif; color: rgb(0, 0, 0); background-color: transparent; font-weight: 400; font-style: normal; font-variant: normal; text-decoration: none; vertical-align: baseline; white-space: pre-wrap;&quot;&gt;программный продукт&lt;/span&gt;&lt;/font&gt;" style="rounded=0;whiteSpace=wrap;html=1;" parent="1" vertex="1">
          <mxGeometry x="1440" y="170" width="120" height="60" as="geometry" />
        </mxCell>
        <mxCell id="tXCBi-K8PfVkHzfxkvnE-4" value="" style="endArrow=none;html=1;rounded=0;entryX=0;entryY=0.5;entryDx=0;entryDy=0;exitX=1;exitY=0.5;exitDx=0;exitDy=0;" parent="1" source="tXCBi-K8PfVkHzfxkvnE-1" target="tXCBi-K8PfVkHzfxkvnE-2" edge="1">
          <mxGeometry width="50" height="50" relative="1" as="geometry">
            <mxPoint x="1310" y="380" as="sourcePoint" />
            <mxPoint x="1360" y="330" as="targetPoint" />
          </mxGeometry>
        </mxCell>
        <mxCell id="tXCBi-K8PfVkHzfxkvnE-6" value="" style="endArrow=none;html=1;rounded=0;entryX=0;entryY=0.5;entryDx=0;entryDy=0;exitX=1;exitY=0.5;exitDx=0;exitDy=0;sourcePortConstraint=none;" parent="1" source="tXCBi-K8PfVkHzfxkvnE-2" target="tXCBi-K8PfVkHzfxkvnE-3" edge="1">
          <mxGeometry width="50" height="50" relative="1" as="geometry">
            <mxPoint x="1290" y="380" as="sourcePoint" />
            <mxPoint x="1340" y="330" as="targetPoint" />
          </mxGeometry>
        </mxCell>
        <mxCell id="tXCBi-K8PfVkHzfxkvnE-7" value="1" style="text;html=1;align=center;verticalAlign=middle;resizable=0;points=[];autosize=1;strokeColor=none;fillColor=none;" parent="1" vertex="1">
          <mxGeometry x="1400" y="168" width="30" height="30" as="geometry" />
        </mxCell>
        <mxCell id="tXCBi-K8PfVkHzfxkvnE-8" value="1" style="text;html=1;align=center;verticalAlign=middle;resizable=0;points=[];autosize=1;strokeColor=none;fillColor=none;" parent="1" vertex="1">
          <mxGeometry x="1290" y="168" width="30" height="30" as="geometry" />
        </mxCell>
        <mxCell id="zwsw4wjTyYMqHzjFKAU5-1" value="Текущие мероприятия" style="ellipse;whiteSpace=wrap;html=1;" parent="1" vertex="1">
          <mxGeometry x="960" y="160" width="120" height="80" as="geometry" />
        </mxCell>
        <mxCell id="zwsw4wjTyYMqHzjFKAU5-2" value="" style="endArrow=none;html=1;rounded=0;entryX=0;entryY=0.5;entryDx=0;entryDy=0;exitX=1;exitY=0.5;exitDx=0;exitDy=0;" parent="1" source="zwsw4wjTyYMqHzjFKAU5-1" target="tXCBi-K8PfVkHzfxkvnE-1" edge="1">
          <mxGeometry width="50" height="50" relative="1" as="geometry">
            <mxPoint x="1160" y="290" as="sourcePoint" />
            <mxPoint x="1210" y="240" as="targetPoint" />
          </mxGeometry>
        </mxCell>
        <mxCell id="OBdYbj2N4DS2FOu5Zp3P-1" value="Пользователь" style="rounded=0;whiteSpace=wrap;html=1;" parent="1" vertex="1">
          <mxGeometry x="1160" y="-60" width="120" height="60" as="geometry" />
        </mxCell>
        <mxCell id="OBdYbj2N4DS2FOu5Zp3P-2" value="" style="endArrow=none;html=1;rounded=0;entryX=0.5;entryY=0;entryDx=0;entryDy=0;" parent="1" target="tXCBi-K8PfVkHzfxkvnE-1" edge="1">
          <mxGeometry width="50" height="50" relative="1" as="geometry">
            <mxPoint x="1220" y="110" as="sourcePoint" />
            <mxPoint x="1190" y="310" as="targetPoint" />
          </mxGeometry>
        </mxCell>
        <mxCell id="u9t9k1sXWGZ0uIuAe-nU-1" value="Имеет" style="rhombus;whiteSpace=wrap;html=1;" parent="1" vertex="1">
          <mxGeometry x="1180" y="40" width="80" height="80" as="geometry" />
        </mxCell>
        <mxCell id="u9t9k1sXWGZ0uIuAe-nU-2" value="" style="endArrow=none;html=1;rounded=0;entryX=0.5;entryY=1;entryDx=0;entryDy=0;exitX=0.5;exitY=0;exitDx=0;exitDy=0;" parent="1" source="u9t9k1sXWGZ0uIuAe-nU-1" target="OBdYbj2N4DS2FOu5Zp3P-1" edge="1">
          <mxGeometry width="50" height="50" relative="1" as="geometry">
            <mxPoint x="1120" y="-170" as="sourcePoint" />
            <mxPoint x="1230" y="-190" as="targetPoint" />
          </mxGeometry>
        </mxCell>
        <mxCell id="u9t9k1sXWGZ0uIuAe-nU-3" value="1" style="text;html=1;align=center;verticalAlign=middle;resizable=0;points=[];autosize=1;strokeColor=none;fillColor=none;" parent="1" vertex="1">
          <mxGeometry x="1216" y="110" width="30" height="30" as="geometry" />
        </mxCell>
        <mxCell id="u9t9k1sXWGZ0uIuAe-nU-4" value="N" style="text;html=1;align=center;verticalAlign=middle;resizable=0;points=[];autosize=1;strokeColor=none;fillColor=none;" parent="1" vertex="1">
          <mxGeometry x="1216" y="10" width="30" height="30" as="geometry" />
        </mxCell>
        <mxCell id="u9t9k1sXWGZ0uIuAe-nU-6" value="UID" style="ellipse;whiteSpace=wrap;html=1;fontStyle=4" parent="1" vertex="1">
          <mxGeometry x="960" y="-70" width="120" height="80" as="geometry" />
        </mxCell>
        <mxCell id="u9t9k1sXWGZ0uIuAe-nU-7" value="" style="endArrow=none;html=1;rounded=0;exitX=1;exitY=0.5;exitDx=0;exitDy=0;entryX=0;entryY=0.5;entryDx=0;entryDy=0;" parent="1" source="u9t9k1sXWGZ0uIuAe-nU-6" target="OBdYbj2N4DS2FOu5Zp3P-1" edge="1">
          <mxGeometry width="50" height="50" relative="1" as="geometry">
            <mxPoint x="1140" y="-40" as="sourcePoint" />
            <mxPoint x="1190" y="-90" as="targetPoint" />
          </mxGeometry>
        </mxCell>
        <mxCell id="jG5blb8nydTaeb3VNkNM-2" value="Раздел создания мероприятий" style="rounded=0;whiteSpace=wrap;html=1;" parent="1" vertex="1">
          <mxGeometry x="960" y="410" width="120" height="60" as="geometry" />
        </mxCell>
        <mxCell id="jG5blb8nydTaeb3VNkNM-3" value="Раздел подключения к мероприятию" style="rounded=0;whiteSpace=wrap;html=1;" parent="1" vertex="1">
          <mxGeometry x="1160" y="410" width="120" height="60" as="geometry" />
        </mxCell>
        <mxCell id="jG5blb8nydTaeb3VNkNM-4" value="Раздел проведения мероприятия" style="rounded=0;whiteSpace=wrap;html=1;" parent="1" vertex="1">
          <mxGeometry x="1360" y="410" width="120" height="60" as="geometry" />
        </mxCell>
        <mxCell id="jG5blb8nydTaeb3VNkNM-6" value="Имеет" style="rhombus;whiteSpace=wrap;html=1;" parent="1" vertex="1">
          <mxGeometry x="1180" y="280" width="80" height="80" as="geometry" />
        </mxCell>
        <mxCell id="jG5blb8nydTaeb3VNkNM-7" value="Имеет" style="rhombus;whiteSpace=wrap;html=1;" parent="1" vertex="1">
          <mxGeometry x="1380" y="280" width="80" height="80" as="geometry" />
        </mxCell>
        <mxCell id="jG5blb8nydTaeb3VNkNM-8" value="Имеет" style="rhombus;whiteSpace=wrap;html=1;" parent="1" vertex="1">
          <mxGeometry x="980" y="280" width="80" height="80" as="geometry" />
        </mxCell>
        <mxCell id="jG5blb8nydTaeb3VNkNM-9" style="edgeStyle=orthogonalEdgeStyle;rounded=0;orthogonalLoop=1;jettySize=auto;html=1;exitX=0.5;exitY=1;exitDx=0;exitDy=0;" parent="1" source="tXCBi-K8PfVkHzfxkvnE-1" target="tXCBi-K8PfVkHzfxkvnE-1" edge="1">
          <mxGeometry relative="1" as="geometry" />
        </mxCell>
        <mxCell id="jG5blb8nydTaeb3VNkNM-10" value="" style="endArrow=none;html=1;rounded=0;entryX=0.5;entryY=1;entryDx=0;entryDy=0;exitX=0.5;exitY=0;exitDx=0;exitDy=0;" parent="1" source="jG5blb8nydTaeb3VNkNM-8" target="tXCBi-K8PfVkHzfxkvnE-1" edge="1">
          <mxGeometry width="50" height="50" relative="1" as="geometry">
            <mxPoint x="1110" y="310" as="sourcePoint" />
            <mxPoint x="1160" y="260" as="targetPoint" />
          </mxGeometry>
        </mxCell>
        <mxCell id="jG5blb8nydTaeb3VNkNM-11" value="" style="endArrow=none;html=1;rounded=0;entryX=0.5;entryY=1;entryDx=0;entryDy=0;exitX=0.5;exitY=0;exitDx=0;exitDy=0;" parent="1" source="jG5blb8nydTaeb3VNkNM-7" target="tXCBi-K8PfVkHzfxkvnE-1" edge="1">
          <mxGeometry width="50" height="50" relative="1" as="geometry">
            <mxPoint x="1020" y="310" as="sourcePoint" />
            <mxPoint x="1230" y="240" as="targetPoint" />
          </mxGeometry>
        </mxCell>
        <mxCell id="jG5blb8nydTaeb3VNkNM-12" value="" style="endArrow=none;html=1;rounded=0;" parent="1" source="jG5blb8nydTaeb3VNkNM-6" edge="1">
          <mxGeometry width="50" height="50" relative="1" as="geometry">
            <mxPoint x="1030" y="320" as="sourcePoint" />
            <mxPoint x="1220" y="230" as="targetPoint" />
          </mxGeometry>
        </mxCell>
        <mxCell id="jG5blb8nydTaeb3VNkNM-15" value="" style="endArrow=none;html=1;rounded=0;entryX=0.5;entryY=1;entryDx=0;entryDy=0;exitX=0.5;exitY=0;exitDx=0;exitDy=0;" parent="1" source="jG5blb8nydTaeb3VNkNM-3" edge="1">
          <mxGeometry width="50" height="50" relative="1" as="geometry">
            <mxPoint x="1220" y="420" as="sourcePoint" />
            <mxPoint x="1220" y="360" as="targetPoint" />
          </mxGeometry>
        </mxCell>
        <mxCell id="jG5blb8nydTaeb3VNkNM-16" value="" style="endArrow=none;html=1;rounded=0;entryX=0.5;entryY=1;entryDx=0;entryDy=0;exitX=0.5;exitY=0;exitDx=0;exitDy=0;" parent="1" source="jG5blb8nydTaeb3VNkNM-4" target="jG5blb8nydTaeb3VNkNM-7" edge="1">
          <mxGeometry width="50" height="50" relative="1" as="geometry">
            <mxPoint x="1220" y="430" as="sourcePoint" />
            <mxPoint x="1220" y="370" as="targetPoint" />
          </mxGeometry>
        </mxCell>
        <mxCell id="jG5blb8nydTaeb3VNkNM-17" value="" style="endArrow=none;html=1;rounded=0;entryX=0.5;entryY=1;entryDx=0;entryDy=0;exitX=0.5;exitY=0;exitDx=0;exitDy=0;" parent="1" source="jG5blb8nydTaeb3VNkNM-2" target="jG5blb8nydTaeb3VNkNM-8" edge="1">
          <mxGeometry width="50" height="50" relative="1" as="geometry">
            <mxPoint x="1250" y="430" as="sourcePoint" />
            <mxPoint x="1250" y="370" as="targetPoint" />
          </mxGeometry>
        </mxCell>
        <mxCell id="rphBF5vqDto7ksjo73aM-1" value="1" style="text;html=1;align=center;verticalAlign=middle;resizable=0;points=[];autosize=1;strokeColor=none;fillColor=none;" parent="1" vertex="1">
          <mxGeometry x="1216" y="255" width="30" height="30" as="geometry" />
        </mxCell>
        <mxCell id="rphBF5vqDto7ksjo73aM-2" value="1" style="text;html=1;align=center;verticalAlign=middle;resizable=0;points=[];autosize=1;strokeColor=none;fillColor=none;" parent="1" vertex="1">
          <mxGeometry x="1216" y="350" width="30" height="30" as="geometry" />
        </mxCell>
        <mxCell id="rphBF5vqDto7ksjo73aM-3" value="1" style="text;html=1;align=center;verticalAlign=middle;resizable=0;points=[];autosize=1;strokeColor=none;fillColor=none;" parent="1" vertex="1">
          <mxGeometry x="1420" y="350" width="30" height="30" as="geometry" />
        </mxCell>
        <mxCell id="rphBF5vqDto7ksjo73aM-4" value="1" style="text;html=1;align=center;verticalAlign=middle;resizable=0;points=[];autosize=1;strokeColor=none;fillColor=none;" parent="1" vertex="1">
          <mxGeometry x="1420" y="260" width="30" height="30" as="geometry" />
        </mxCell>
        <mxCell id="rphBF5vqDto7ksjo73aM-5" value="1" style="text;html=1;align=center;verticalAlign=middle;resizable=0;points=[];autosize=1;strokeColor=none;fillColor=none;" parent="1" vertex="1">
          <mxGeometry x="1005" y="250" width="30" height="30" as="geometry" />
        </mxCell>
        <mxCell id="rphBF5vqDto7ksjo73aM-6" value="1" style="text;html=1;align=center;verticalAlign=middle;resizable=0;points=[];autosize=1;strokeColor=none;fillColor=none;" parent="1" vertex="1">
          <mxGeometry x="1015" y="350" width="30" height="30" as="geometry" />
        </mxCell>
        <mxCell id="rphBF5vqDto7ksjo73aM-8" value="Обеспечивает" style="rhombus;whiteSpace=wrap;html=1;" parent="1" vertex="1">
          <mxGeometry x="980" y="520" width="80" height="80" as="geometry" />
        </mxCell>
        <mxCell id="rphBF5vqDto7ksjo73aM-10" value="" style="endArrow=none;html=1;rounded=0;entryX=0.5;entryY=1;entryDx=0;entryDy=0;exitX=0.5;exitY=0;exitDx=0;exitDy=0;" parent="1" source="rphBF5vqDto7ksjo73aM-8" target="jG5blb8nydTaeb3VNkNM-2" edge="1">
          <mxGeometry width="50" height="50" relative="1" as="geometry">
            <mxPoint x="1030" y="425" as="sourcePoint" />
            <mxPoint x="1030" y="375" as="targetPoint" />
          </mxGeometry>
        </mxCell>
        <mxCell id="rphBF5vqDto7ksjo73aM-11" value="Обеспечивает" style="rhombus;whiteSpace=wrap;html=1;" parent="1" vertex="1">
          <mxGeometry x="1380" y="520" width="80" height="80" as="geometry" />
        </mxCell>
        <mxCell id="rphBF5vqDto7ksjo73aM-12" value="" style="endArrow=none;html=1;rounded=0;exitX=0.5;exitY=0;exitDx=0;exitDy=0;entryX=0.5;entryY=1;entryDx=0;entryDy=0;" parent="1" source="rphBF5vqDto7ksjo73aM-11" target="jG5blb8nydTaeb3VNkNM-4" edge="1">
          <mxGeometry width="50" height="50" relative="1" as="geometry">
            <mxPoint x="1430" y="425" as="sourcePoint" />
            <mxPoint x="1460" y="500" as="targetPoint" />
          </mxGeometry>
        </mxCell>
        <mxCell id="rphBF5vqDto7ksjo73aM-13" value="Обеспечивает" style="rhombus;whiteSpace=wrap;html=1;" parent="1" vertex="1">
          <mxGeometry x="1180" y="520" width="80" height="80" as="geometry" />
        </mxCell>
        <mxCell id="rphBF5vqDto7ksjo73aM-14" value="" style="endArrow=none;html=1;rounded=0;exitX=0.5;exitY=0;exitDx=0;exitDy=0;entryX=0.5;entryY=1;entryDx=0;entryDy=0;" parent="1" source="rphBF5vqDto7ksjo73aM-13" target="jG5blb8nydTaeb3VNkNM-3" edge="1">
          <mxGeometry width="50" height="50" relative="1" as="geometry">
            <mxPoint x="1230" y="425" as="sourcePoint" />
            <mxPoint x="1240" y="510" as="targetPoint" />
          </mxGeometry>
        </mxCell>
        <mxCell id="rphBF5vqDto7ksjo73aM-15" value="Создание" style="rounded=0;whiteSpace=wrap;html=1;" parent="1" vertex="1">
          <mxGeometry x="960" y="650" width="120" height="60" as="geometry" />
        </mxCell>
        <mxCell id="rphBF5vqDto7ksjo73aM-16" value="" style="endArrow=none;html=1;rounded=0;entryX=0.5;entryY=1;entryDx=0;entryDy=0;exitX=0.5;exitY=0;exitDx=0;exitDy=0;" parent="1" source="rphBF5vqDto7ksjo73aM-15" target="rphBF5vqDto7ksjo73aM-8" edge="1">
          <mxGeometry width="50" height="50" relative="1" as="geometry">
            <mxPoint x="1030" y="560" as="sourcePoint" />
            <mxPoint x="1030" y="485" as="targetPoint" />
          </mxGeometry>
        </mxCell>
        <mxCell id="rphBF5vqDto7ksjo73aM-17" value="Чего" style="rhombus;whiteSpace=wrap;html=1;" parent="1" vertex="1">
          <mxGeometry x="980" y="750" width="80" height="80" as="geometry" />
        </mxCell>
        <mxCell id="rphBF5vqDto7ksjo73aM-18" value="" style="endArrow=none;html=1;rounded=0;entryX=0.5;entryY=1;entryDx=0;entryDy=0;exitX=0.5;exitY=0;exitDx=0;exitDy=0;" parent="1" source="rphBF5vqDto7ksjo73aM-17" target="rphBF5vqDto7ksjo73aM-15" edge="1">
          <mxGeometry width="50" height="50" relative="1" as="geometry">
            <mxPoint x="1020" y="700" as="sourcePoint" />
            <mxPoint x="1020" y="640" as="targetPoint" />
          </mxGeometry>
        </mxCell>
        <mxCell id="rphBF5vqDto7ksjo73aM-19" value="Мероприятия" style="rounded=0;whiteSpace=wrap;html=1;" parent="1" vertex="1">
          <mxGeometry x="1060" y="880" width="120" height="60" as="geometry" />
        </mxCell>
        <mxCell id="rphBF5vqDto7ksjo73aM-20" value="" style="endArrow=none;html=1;rounded=0;entryX=0.5;entryY=1;entryDx=0;entryDy=0;exitX=0.5;exitY=0;exitDx=0;exitDy=0;" parent="1" source="rphBF5vqDto7ksjo73aM-19" target="rphBF5vqDto7ksjo73aM-17" edge="1">
          <mxGeometry width="50" height="50" relative="1" as="geometry">
            <mxPoint x="1020" y="800" as="sourcePoint" />
            <mxPoint x="1020" y="760" as="targetPoint" />
          </mxGeometry>
        </mxCell>
        <mxCell id="rphBF5vqDto7ksjo73aM-21" value="Подключение" style="rounded=0;whiteSpace=wrap;html=1;" parent="1" vertex="1">
          <mxGeometry x="1160" y="650" width="120" height="60" as="geometry" />
        </mxCell>
        <mxCell id="rphBF5vqDto7ksjo73aM-22" value="" style="endArrow=none;html=1;rounded=0;entryX=0.5;entryY=1;entryDx=0;entryDy=0;exitX=0.5;exitY=0;exitDx=0;exitDy=0;" parent="1" source="rphBF5vqDto7ksjo73aM-21" target="rphBF5vqDto7ksjo73aM-13" edge="1">
          <mxGeometry width="50" height="50" relative="1" as="geometry">
            <mxPoint x="1020" y="650" as="sourcePoint" />
            <mxPoint x="1020" y="600" as="targetPoint" />
          </mxGeometry>
        </mxCell>
        <mxCell id="rphBF5vqDto7ksjo73aM-23" value="Кого" style="rhombus;whiteSpace=wrap;html=1;" parent="1" vertex="1">
          <mxGeometry x="1180" y="750" width="80" height="80" as="geometry" />
        </mxCell>
        <mxCell id="rphBF5vqDto7ksjo73aM-24" value="К чему" style="rhombus;whiteSpace=wrap;html=1;" parent="1" vertex="1">
          <mxGeometry x="1080" y="750" width="80" height="80" as="geometry" />
        </mxCell>
        <mxCell id="rphBF5vqDto7ksjo73aM-25" value="" style="endArrow=none;html=1;rounded=0;entryX=0.5;entryY=1;entryDx=0;entryDy=0;exitX=0.5;exitY=0;exitDx=0;exitDy=0;" parent="1" source="rphBF5vqDto7ksjo73aM-24" target="rphBF5vqDto7ksjo73aM-21" edge="1">
          <mxGeometry width="50" height="50" relative="1" as="geometry">
            <mxPoint x="1020" y="760" as="sourcePoint" />
            <mxPoint x="1020" y="710" as="targetPoint" />
          </mxGeometry>
        </mxCell>
        <mxCell id="rphBF5vqDto7ksjo73aM-26" value="" style="endArrow=none;html=1;rounded=0;entryX=0.5;entryY=1;entryDx=0;entryDy=0;exitX=0.5;exitY=0;exitDx=0;exitDy=0;" parent="1" source="rphBF5vqDto7ksjo73aM-23" target="rphBF5vqDto7ksjo73aM-21" edge="1">
          <mxGeometry width="50" height="50" relative="1" as="geometry">
            <mxPoint x="1120" y="760" as="sourcePoint" />
            <mxPoint x="1230" y="710" as="targetPoint" />
          </mxGeometry>
        </mxCell>
        <mxCell id="rphBF5vqDto7ksjo73aM-27" value="Пользователя" style="rounded=0;whiteSpace=wrap;html=1;" parent="1" vertex="1">
          <mxGeometry x="1260" y="880" width="120" height="60" as="geometry" />
        </mxCell>
        <mxCell id="rphBF5vqDto7ksjo73aM-28" value="" style="endArrow=none;html=1;rounded=0;entryX=0.5;entryY=1;entryDx=0;entryDy=0;exitX=0.5;exitY=0;exitDx=0;exitDy=0;" parent="1" source="rphBF5vqDto7ksjo73aM-19" target="rphBF5vqDto7ksjo73aM-24" edge="1">
          <mxGeometry width="50" height="50" relative="1" as="geometry">
            <mxPoint x="1020" y="890" as="sourcePoint" />
            <mxPoint x="1020" y="840" as="targetPoint" />
          </mxGeometry>
        </mxCell>
        <mxCell id="rphBF5vqDto7ksjo73aM-29" value="" style="endArrow=none;html=1;rounded=0;entryX=0.5;entryY=1;entryDx=0;entryDy=0;exitX=0.5;exitY=0;exitDx=0;exitDy=0;" parent="1" source="rphBF5vqDto7ksjo73aM-27" target="rphBF5vqDto7ksjo73aM-23" edge="1">
          <mxGeometry width="50" height="50" relative="1" as="geometry">
            <mxPoint x="1020" y="890" as="sourcePoint" />
            <mxPoint x="1120" y="840" as="targetPoint" />
          </mxGeometry>
        </mxCell>
        <mxCell id="rphBF5vqDto7ksjo73aM-30" value="1" style="text;html=1;align=center;verticalAlign=middle;resizable=0;points=[];autosize=1;strokeColor=none;fillColor=none;" parent="1" vertex="1">
          <mxGeometry x="1015" y="500" width="30" height="30" as="geometry" />
        </mxCell>
        <mxCell id="rphBF5vqDto7ksjo73aM-31" value="N" style="text;html=1;align=center;verticalAlign=middle;resizable=0;points=[];autosize=1;strokeColor=none;fillColor=none;" parent="1" vertex="1">
          <mxGeometry x="1015" y="590" width="30" height="30" as="geometry" />
        </mxCell>
        <mxCell id="rphBF5vqDto7ksjo73aM-32" value="1" style="text;html=1;align=center;verticalAlign=middle;resizable=0;points=[];autosize=1;strokeColor=none;fillColor=none;" parent="1" vertex="1">
          <mxGeometry x="1005" y="730" width="30" height="30" as="geometry" />
        </mxCell>
        <mxCell id="rphBF5vqDto7ksjo73aM-33" value="1" style="text;html=1;align=center;verticalAlign=middle;resizable=0;points=[];autosize=1;strokeColor=none;fillColor=none;" parent="1" vertex="1">
          <mxGeometry x="995" y="830" width="30" height="30" as="geometry" />
        </mxCell>
        <mxCell id="rphBF5vqDto7ksjo73aM-34" value="1" style="text;html=1;align=center;verticalAlign=middle;resizable=0;points=[];autosize=1;strokeColor=none;fillColor=none;" parent="1" vertex="1">
          <mxGeometry x="1216" y="500" width="30" height="30" as="geometry" />
        </mxCell>
        <mxCell id="rphBF5vqDto7ksjo73aM-35" value="N" style="text;html=1;align=center;verticalAlign=middle;resizable=0;points=[];autosize=1;strokeColor=none;fillColor=none;" parent="1" vertex="1">
          <mxGeometry x="1216" y="590" width="30" height="30" as="geometry" />
        </mxCell>
        <mxCell id="rphBF5vqDto7ksjo73aM-36" value="1" style="text;html=1;align=center;verticalAlign=middle;resizable=0;points=[];autosize=1;strokeColor=none;fillColor=none;" parent="1" vertex="1">
          <mxGeometry x="1216" y="730" width="30" height="30" as="geometry" />
        </mxCell>
        <mxCell id="rphBF5vqDto7ksjo73aM-37" value="1" style="text;html=1;align=center;verticalAlign=middle;resizable=0;points=[];autosize=1;strokeColor=none;fillColor=none;" parent="1" vertex="1">
          <mxGeometry x="1095" y="720" width="30" height="30" as="geometry" />
        </mxCell>
        <mxCell id="rphBF5vqDto7ksjo73aM-38" value="1" style="text;html=1;align=center;verticalAlign=middle;resizable=0;points=[];autosize=1;strokeColor=none;fillColor=none;" parent="1" vertex="1">
          <mxGeometry x="1095" y="830" width="30" height="30" as="geometry" />
        </mxCell>
        <mxCell id="rphBF5vqDto7ksjo73aM-39" value="1" style="text;html=1;align=center;verticalAlign=middle;resizable=0;points=[];autosize=1;strokeColor=none;fillColor=none;" parent="1" vertex="1">
          <mxGeometry x="1205" y="830" width="30" height="30" as="geometry" />
        </mxCell>
        <mxCell id="rphBF5vqDto7ksjo73aM-40" value="Взаимодействие" style="rounded=0;whiteSpace=wrap;html=1;" parent="1" vertex="1">
          <mxGeometry x="1360" y="650" width="120" height="60" as="geometry" />
        </mxCell>
        <mxCell id="rphBF5vqDto7ksjo73aM-41" value="Кого" style="rhombus;whiteSpace=wrap;html=1;" parent="1" vertex="1">
          <mxGeometry x="1280" y="750" width="80" height="80" as="geometry" />
        </mxCell>
        <mxCell id="rphBF5vqDto7ksjo73aM-42" value="С чем" style="rhombus;whiteSpace=wrap;html=1;" parent="1" vertex="1">
          <mxGeometry x="1380" y="750" width="80" height="80" as="geometry" />
        </mxCell>
        <mxCell id="rphBF5vqDto7ksjo73aM-43" value="" style="endArrow=none;html=1;rounded=0;entryX=0.5;entryY=1;entryDx=0;entryDy=0;exitX=0.5;exitY=0;exitDx=0;exitDy=0;" parent="1" source="rphBF5vqDto7ksjo73aM-41" target="rphBF5vqDto7ksjo73aM-40" edge="1">
          <mxGeometry width="50" height="50" relative="1" as="geometry">
            <mxPoint x="1230" y="760" as="sourcePoint" />
            <mxPoint x="1230" y="710" as="targetPoint" />
          </mxGeometry>
        </mxCell>
        <mxCell id="rphBF5vqDto7ksjo73aM-44" value="" style="endArrow=none;html=1;rounded=0;exitX=0.5;exitY=0;exitDx=0;exitDy=0;entryX=0.5;entryY=1;entryDx=0;entryDy=0;" parent="1" source="rphBF5vqDto7ksjo73aM-42" target="rphBF5vqDto7ksjo73aM-40" edge="1">
          <mxGeometry width="50" height="50" relative="1" as="geometry">
            <mxPoint x="1340" y="760" as="sourcePoint" />
            <mxPoint x="1450" y="730" as="targetPoint" />
          </mxGeometry>
        </mxCell>
        <mxCell id="rphBF5vqDto7ksjo73aM-45" value="" style="endArrow=none;html=1;rounded=0;entryX=0.5;entryY=1;entryDx=0;entryDy=0;exitX=0.5;exitY=0;exitDx=0;exitDy=0;" parent="1" source="rphBF5vqDto7ksjo73aM-27" target="rphBF5vqDto7ksjo73aM-41" edge="1">
          <mxGeometry width="50" height="50" relative="1" as="geometry">
            <mxPoint x="1220" y="880" as="sourcePoint" />
            <mxPoint x="1440" y="710" as="targetPoint" />
          </mxGeometry>
        </mxCell>
        <mxCell id="rphBF5vqDto7ksjo73aM-46" value="" style="endArrow=none;html=1;rounded=0;entryX=0.5;entryY=1;entryDx=0;entryDy=0;exitX=0.5;exitY=0;exitDx=0;exitDy=0;" parent="1" source="rphBF5vqDto7ksjo73aM-19" target="rphBF5vqDto7ksjo73aM-42" edge="1">
          <mxGeometry width="50" height="50" relative="1" as="geometry">
            <mxPoint x="1340" y="890" as="sourcePoint" />
            <mxPoint x="1340" y="840" as="targetPoint" />
          </mxGeometry>
        </mxCell>
        <mxCell id="rphBF5vqDto7ksjo73aM-47" value="1" style="text;html=1;align=center;verticalAlign=middle;resizable=0;points=[];autosize=1;strokeColor=none;fillColor=none;" parent="1" vertex="1">
          <mxGeometry x="1315" y="720" width="30" height="30" as="geometry" />
        </mxCell>
        <mxCell id="rphBF5vqDto7ksjo73aM-48" value="1" style="text;html=1;align=center;verticalAlign=middle;resizable=0;points=[];autosize=1;strokeColor=none;fillColor=none;" parent="1" vertex="1">
          <mxGeometry x="1420" y="720" width="30" height="30" as="geometry" />
        </mxCell>
        <mxCell id="rphBF5vqDto7ksjo73aM-49" value="1" style="text;html=1;align=center;verticalAlign=middle;resizable=0;points=[];autosize=1;strokeColor=none;fillColor=none;" parent="1" vertex="1">
          <mxGeometry x="1415" y="830" width="30" height="30" as="geometry" />
        </mxCell>
        <mxCell id="rphBF5vqDto7ksjo73aM-50" value="1" style="text;html=1;align=center;verticalAlign=middle;resizable=0;points=[];autosize=1;strokeColor=none;fillColor=none;" parent="1" vertex="1">
          <mxGeometry x="1310" y="820" width="30" height="30" as="geometry" />
        </mxCell>
        <mxCell id="rphBF5vqDto7ksjo73aM-51" value="" style="endArrow=none;html=1;rounded=0;entryX=0.5;entryY=1;entryDx=0;entryDy=0;exitX=0.5;exitY=0;exitDx=0;exitDy=0;" parent="1" source="rphBF5vqDto7ksjo73aM-40" target="rphBF5vqDto7ksjo73aM-11" edge="1">
          <mxGeometry width="50" height="50" relative="1" as="geometry">
            <mxPoint x="1330" y="760" as="sourcePoint" />
            <mxPoint x="1430" y="710" as="targetPoint" />
          </mxGeometry>
        </mxCell>
        <mxCell id="rphBF5vqDto7ksjo73aM-52" value="N" style="text;html=1;align=center;verticalAlign=middle;resizable=0;points=[];autosize=1;strokeColor=none;fillColor=none;" parent="1" vertex="1">
          <mxGeometry x="1420" y="585" width="30" height="30" as="geometry" />
        </mxCell>
        <mxCell id="rphBF5vqDto7ksjo73aM-53" value="1" style="text;html=1;align=center;verticalAlign=middle;resizable=0;points=[];autosize=1;strokeColor=none;fillColor=none;" parent="1" vertex="1">
          <mxGeometry x="1420" y="500" width="30" height="30" as="geometry" />
        </mxCell>
      </root>
    </mxGraphModel>
  </diagram>
  <diagram id="CpulXWmUfAoIBuQIBR0p" name="Страница — 2">
    <mxGraphModel dx="1941" dy="634" grid="1" gridSize="10" guides="1" tooltips="1" connect="1" arrows="1" fold="1" page="1" pageScale="1" pageWidth="827" pageHeight="1169" math="0" shadow="0">
      <root>
        <mxCell id="0" />
        <mxCell id="1" parent="0" />
        <mxCell id="_vykkSeHL0QJ4ZjWRuhM-1" value="&lt;div&gt;&lt;font style=&quot;font-size: 14px;&quot;&gt;Создаёт&lt;/font&gt;&lt;/div&gt;" style="rhombus;whiteSpace=wrap;html=1;" parent="1" vertex="1">
          <mxGeometry x="-120" y="280" width="80" height="80" as="geometry" />
        </mxCell>
        <mxCell id="_vykkSeHL0QJ4ZjWRuhM-2" value="" style="endArrow=none;html=1;rounded=0;entryX=0.5;entryY=1;entryDx=0;entryDy=0;exitX=0.5;exitY=0;exitDx=0;exitDy=0;" parent="1" source="_vykkSeHL0QJ4ZjWRuhM-1" target="_vykkSeHL0QJ4ZjWRuhM-34" edge="1">
          <mxGeometry width="50" height="50" relative="1" as="geometry">
            <mxPoint x="270" y="310" as="sourcePoint" />
            <mxPoint x="320" y="260" as="targetPoint" />
          </mxGeometry>
        </mxCell>
        <mxCell id="_vykkSeHL0QJ4ZjWRuhM-3" value="Зритель" style="rounded=0;whiteSpace=wrap;html=1;fontSize=14;" parent="1" vertex="1">
          <mxGeometry x="500" y="390" width="120" height="60" as="geometry" />
        </mxCell>
        <mxCell id="_vykkSeHL0QJ4ZjWRuhM-4" value="Мероприятие" style="rounded=0;whiteSpace=wrap;html=1;fontSize=14;" parent="1" vertex="1">
          <mxGeometry x="20" y="390" width="120" height="60" as="geometry" />
        </mxCell>
        <mxCell id="_vykkSeHL0QJ4ZjWRuhM-5" value="" style="endArrow=none;html=1;rounded=0;entryX=0.5;entryY=1;entryDx=0;entryDy=0;exitX=0.5;exitY=0;exitDx=0;exitDy=0;" parent="1" source="_vykkSeHL0QJ4ZjWRuhM-4" target="_vykkSeHL0QJ4ZjWRuhM-1" edge="1">
          <mxGeometry width="50" height="50" relative="1" as="geometry">
            <mxPoint x="-80" y="390" as="sourcePoint" />
            <mxPoint x="10" y="250" as="targetPoint" />
          </mxGeometry>
        </mxCell>
        <mxCell id="_vykkSeHL0QJ4ZjWRuhM-6" value="" style="endArrow=none;html=1;rounded=0;entryX=0.5;entryY=1;entryDx=0;entryDy=0;exitX=0.5;exitY=0;exitDx=0;exitDy=0;" parent="1" source="_vykkSeHL0QJ4ZjWRuhM-7" target="_vykkSeHL0QJ4ZjWRuhM-34" edge="1">
          <mxGeometry width="50" height="50" relative="1" as="geometry">
            <mxPoint x="460" y="260" as="sourcePoint" />
            <mxPoint x="300" y="260" as="targetPoint" />
          </mxGeometry>
        </mxCell>
        <mxCell id="_vykkSeHL0QJ4ZjWRuhM-7" value="&lt;div&gt;Управляет&lt;/div&gt;" style="rhombus;whiteSpace=wrap;html=1;fontSize=14;" parent="1" vertex="1">
          <mxGeometry x="200" y="280" width="80" height="80" as="geometry" />
        </mxCell>
        <mxCell id="_vykkSeHL0QJ4ZjWRuhM-8" value="" style="endArrow=none;html=1;rounded=0;entryX=0.5;entryY=1;entryDx=0;entryDy=0;exitX=0.5;exitY=0;exitDx=0;exitDy=0;" parent="1" source="_vykkSeHL0QJ4ZjWRuhM-4" target="_vykkSeHL0QJ4ZjWRuhM-7" edge="1">
          <mxGeometry width="50" height="50" relative="1" as="geometry">
            <mxPoint x="50" y="450" as="sourcePoint" />
            <mxPoint x="100" y="400" as="targetPoint" />
          </mxGeometry>
        </mxCell>
        <mxCell id="_vykkSeHL0QJ4ZjWRuhM-9" value="Приглашает" style="rhombus;whiteSpace=wrap;html=1;fontSize=14;" parent="1" vertex="1">
          <mxGeometry x="520" y="280" width="80" height="80" as="geometry" />
        </mxCell>
        <mxCell id="_vykkSeHL0QJ4ZjWRuhM-10" value="" style="endArrow=none;html=1;rounded=0;exitX=0.5;exitY=0;exitDx=0;exitDy=0;entryX=0.5;entryY=1;entryDx=0;entryDy=0;" parent="1" source="_vykkSeHL0QJ4ZjWRuhM-9" target="_vykkSeHL0QJ4ZjWRuhM-34" edge="1">
          <mxGeometry width="50" height="50" relative="1" as="geometry">
            <mxPoint x="777" y="460" as="sourcePoint" />
            <mxPoint x="887" y="230" as="targetPoint" />
          </mxGeometry>
        </mxCell>
        <mxCell id="_vykkSeHL0QJ4ZjWRuhM-11" value="" style="endArrow=none;html=1;rounded=0;entryX=0.5;entryY=1;entryDx=0;entryDy=0;exitX=0.5;exitY=0;exitDx=0;exitDy=0;" parent="1" source="_vykkSeHL0QJ4ZjWRuhM-3" target="_vykkSeHL0QJ4ZjWRuhM-9" edge="1">
          <mxGeometry width="50" height="50" relative="1" as="geometry">
            <mxPoint x="210" y="450" as="sourcePoint" />
            <mxPoint x="260" y="400" as="targetPoint" />
          </mxGeometry>
        </mxCell>
        <mxCell id="_vykkSeHL0QJ4ZjWRuhM-12" value="1" style="text;html=1;align=center;verticalAlign=middle;resizable=0;points=[];autosize=1;strokeColor=none;fillColor=none;" parent="1" vertex="1">
          <mxGeometry x="-95" y="250" width="30" height="30" as="geometry" />
        </mxCell>
        <mxCell id="_vykkSeHL0QJ4ZjWRuhM-13" value="1" style="text;html=1;align=center;verticalAlign=middle;resizable=0;points=[];autosize=1;strokeColor=none;fillColor=none;" parent="1" vertex="1">
          <mxGeometry x="-95" y="360" width="30" height="30" as="geometry" />
        </mxCell>
        <mxCell id="_vykkSeHL0QJ4ZjWRuhM-14" value="1" style="text;html=1;align=center;verticalAlign=middle;resizable=0;points=[];autosize=1;strokeColor=none;fillColor=none;" parent="1" vertex="1">
          <mxGeometry x="225" y="360" width="30" height="30" as="geometry" />
        </mxCell>
        <mxCell id="_vykkSeHL0QJ4ZjWRuhM-15" value="N" style="text;html=1;align=center;verticalAlign=middle;resizable=0;points=[];autosize=1;strokeColor=none;fillColor=none;" parent="1" vertex="1">
          <mxGeometry x="560" y="360" width="30" height="30" as="geometry" />
        </mxCell>
        <mxCell id="_vykkSeHL0QJ4ZjWRuhM-16" value="1" style="text;html=1;align=center;verticalAlign=middle;resizable=0;points=[];autosize=1;strokeColor=none;fillColor=none;" parent="1" vertex="1">
          <mxGeometry x="230" y="250" width="30" height="30" as="geometry" />
        </mxCell>
        <mxCell id="_vykkSeHL0QJ4ZjWRuhM-17" value="1" style="text;html=1;align=center;verticalAlign=middle;resizable=0;points=[];autosize=1;strokeColor=none;fillColor=none;" parent="1" vertex="1">
          <mxGeometry x="545" y="250" width="30" height="30" as="geometry" />
        </mxCell>
        <mxCell id="_vykkSeHL0QJ4ZjWRuhM-18" value="Название" style="ellipse;whiteSpace=wrap;html=1;fontSize=14;" parent="1" vertex="1">
          <mxGeometry x="90" y="480" width="120" height="80" as="geometry" />
        </mxCell>
        <mxCell id="_vykkSeHL0QJ4ZjWRuhM-19" value="Время начала" style="ellipse;whiteSpace=wrap;html=1;fontSize=14;" parent="1" vertex="1">
          <mxGeometry x="230" y="480" width="120" height="80" as="geometry" />
        </mxCell>
        <mxCell id="_vykkSeHL0QJ4ZjWRuhM-20" value="Описание" style="ellipse;whiteSpace=wrap;html=1;fontSize=14;" parent="1" vertex="1">
          <mxGeometry x="-50" y="480" width="120" height="80" as="geometry" />
        </mxCell>
        <mxCell id="_vykkSeHL0QJ4ZjWRuhM-21" value="Трансляция" style="ellipse;whiteSpace=wrap;html=1;fontSize=14;" parent="1" vertex="1">
          <mxGeometry x="-190" y="480" width="120" height="80" as="geometry" />
        </mxCell>
        <mxCell id="_vykkSeHL0QJ4ZjWRuhM-22" value="&lt;u&gt;Код мероприятия&lt;/u&gt;" style="ellipse;whiteSpace=wrap;html=1;fontSize=14;" parent="1" vertex="1">
          <mxGeometry x="90" y="580" width="120" height="80" as="geometry" />
        </mxCell>
        <mxCell id="_vykkSeHL0QJ4ZjWRuhM-23" value="Тип" style="ellipse;whiteSpace=wrap;html=1;fontSize=14;" parent="1" vertex="1">
          <mxGeometry x="230" y="580" width="120" height="80" as="geometry" />
        </mxCell>
        <mxCell id="_vykkSeHL0QJ4ZjWRuhM-24" value="" style="endArrow=none;html=1;rounded=0;entryX=0.5;entryY=1;entryDx=0;entryDy=0;exitX=0.5;exitY=0;exitDx=0;exitDy=0;" parent="1" source="_vykkSeHL0QJ4ZjWRuhM-20" target="_vykkSeHL0QJ4ZjWRuhM-4" edge="1">
          <mxGeometry width="50" height="50" relative="1" as="geometry">
            <mxPoint x="150" y="610" as="sourcePoint" />
            <mxPoint x="200" y="560" as="targetPoint" />
          </mxGeometry>
        </mxCell>
        <mxCell id="_vykkSeHL0QJ4ZjWRuhM-25" value="" style="endArrow=none;html=1;rounded=0;entryX=0.5;entryY=1;entryDx=0;entryDy=0;exitX=0.5;exitY=0;exitDx=0;exitDy=0;" parent="1" source="_vykkSeHL0QJ4ZjWRuhM-18" target="_vykkSeHL0QJ4ZjWRuhM-4" edge="1">
          <mxGeometry width="50" height="50" relative="1" as="geometry">
            <mxPoint x="20" y="490" as="sourcePoint" />
            <mxPoint x="90" y="460" as="targetPoint" />
          </mxGeometry>
        </mxCell>
        <mxCell id="_vykkSeHL0QJ4ZjWRuhM-26" value="" style="endArrow=none;html=1;rounded=0;exitX=0.5;exitY=0;exitDx=0;exitDy=0;" parent="1" source="_vykkSeHL0QJ4ZjWRuhM-19" edge="1">
          <mxGeometry width="50" height="50" relative="1" as="geometry">
            <mxPoint x="30" y="500" as="sourcePoint" />
            <mxPoint x="80" y="450" as="targetPoint" />
          </mxGeometry>
        </mxCell>
        <mxCell id="_vykkSeHL0QJ4ZjWRuhM-27" value="" style="endArrow=none;html=1;rounded=0;exitX=0.5;exitY=0;exitDx=0;exitDy=0;" parent="1" source="_vykkSeHL0QJ4ZjWRuhM-22" edge="1">
          <mxGeometry width="50" height="50" relative="1" as="geometry">
            <mxPoint x="40" y="510" as="sourcePoint" />
            <mxPoint x="80" y="450" as="targetPoint" />
          </mxGeometry>
        </mxCell>
        <mxCell id="_vykkSeHL0QJ4ZjWRuhM-28" value="" style="endArrow=none;html=1;rounded=0;exitX=0.5;exitY=0;exitDx=0;exitDy=0;" parent="1" source="_vykkSeHL0QJ4ZjWRuhM-23" edge="1">
          <mxGeometry width="50" height="50" relative="1" as="geometry">
            <mxPoint x="50" y="520" as="sourcePoint" />
            <mxPoint x="80" y="450" as="targetPoint" />
          </mxGeometry>
        </mxCell>
        <mxCell id="_vykkSeHL0QJ4ZjWRuhM-29" value="" style="endArrow=none;html=1;rounded=0;exitX=0.5;exitY=0;exitDx=0;exitDy=0;" parent="1" source="_vykkSeHL0QJ4ZjWRuhM-21" edge="1">
          <mxGeometry width="50" height="50" relative="1" as="geometry">
            <mxPoint x="60" y="530" as="sourcePoint" />
            <mxPoint x="80" y="450" as="targetPoint" />
          </mxGeometry>
        </mxCell>
        <mxCell id="_vykkSeHL0QJ4ZjWRuhM-30" value="Количество кадров в секунду" style="ellipse;whiteSpace=wrap;html=1;fontSize=14;" parent="1" vertex="1">
          <mxGeometry x="-120" y="580" width="120" height="80" as="geometry" />
        </mxCell>
        <mxCell id="_vykkSeHL0QJ4ZjWRuhM-31" value="Качество изображения" style="ellipse;whiteSpace=wrap;html=1;fontSize=14;" parent="1" vertex="1">
          <mxGeometry x="-260" y="580" width="120" height="80" as="geometry" />
        </mxCell>
        <mxCell id="_vykkSeHL0QJ4ZjWRuhM-32" value="" style="endArrow=none;html=1;rounded=0;entryX=0.5;entryY=1;entryDx=0;entryDy=0;exitX=0.5;exitY=0;exitDx=0;exitDy=0;" parent="1" source="_vykkSeHL0QJ4ZjWRuhM-30" target="_vykkSeHL0QJ4ZjWRuhM-21" edge="1">
          <mxGeometry width="50" height="50" relative="1" as="geometry">
            <mxPoint x="70" y="540" as="sourcePoint" />
            <mxPoint x="140" y="510" as="targetPoint" />
          </mxGeometry>
        </mxCell>
        <mxCell id="_vykkSeHL0QJ4ZjWRuhM-33" value="" style="endArrow=none;html=1;rounded=0;entryX=0.5;entryY=1;entryDx=0;entryDy=0;exitX=0.5;exitY=0;exitDx=0;exitDy=0;" parent="1" source="_vykkSeHL0QJ4ZjWRuhM-31" target="_vykkSeHL0QJ4ZjWRuhM-21" edge="1">
          <mxGeometry width="50" height="50" relative="1" as="geometry">
            <mxPoint x="80" y="550" as="sourcePoint" />
            <mxPoint x="150" y="520" as="targetPoint" />
          </mxGeometry>
        </mxCell>
        <mxCell id="_vykkSeHL0QJ4ZjWRuhM-34" value="&lt;div style=&quot;font-size: 14px;&quot;&gt;Ведущий&lt;/div&gt;" style="whiteSpace=wrap;html=1;fontSize=14;" parent="1" vertex="1">
          <mxGeometry x="180" y="150" width="120" height="60" as="geometry" />
        </mxCell>
        <mxCell id="_vykkSeHL0QJ4ZjWRuhM-35" value="&lt;div&gt;Участвует&lt;/div&gt;" style="rhombus;whiteSpace=wrap;html=1;fontSize=14;" parent="1" vertex="1">
          <mxGeometry x="280" y="380" width="80" height="80" as="geometry" />
        </mxCell>
        <mxCell id="_vykkSeHL0QJ4ZjWRuhM-36" value="" style="endArrow=none;html=1;rounded=0;entryX=0;entryY=0.5;entryDx=0;entryDy=0;exitX=1;exitY=0.5;exitDx=0;exitDy=0;" parent="1" source="_vykkSeHL0QJ4ZjWRuhM-35" target="_vykkSeHL0QJ4ZjWRuhM-3" edge="1">
          <mxGeometry width="50" height="50" relative="1" as="geometry">
            <mxPoint x="440" y="460" as="sourcePoint" />
            <mxPoint x="490" y="410" as="targetPoint" />
          </mxGeometry>
        </mxCell>
        <mxCell id="_vykkSeHL0QJ4ZjWRuhM-37" value="" style="endArrow=none;html=1;rounded=0;entryX=1;entryY=0.5;entryDx=0;entryDy=0;exitX=0;exitY=0.5;exitDx=0;exitDy=0;" parent="1" source="_vykkSeHL0QJ4ZjWRuhM-35" target="_vykkSeHL0QJ4ZjWRuhM-4" edge="1">
          <mxGeometry width="50" height="50" relative="1" as="geometry">
            <mxPoint x="370" y="430" as="sourcePoint" />
            <mxPoint x="510" y="430" as="targetPoint" />
          </mxGeometry>
        </mxCell>
        <mxCell id="_vykkSeHL0QJ4ZjWRuhM-38" value="N" style="text;html=1;align=center;verticalAlign=middle;resizable=0;points=[];autosize=1;strokeColor=none;fillColor=none;" parent="1" vertex="1">
          <mxGeometry x="350" y="390" width="30" height="30" as="geometry" />
        </mxCell>
        <mxCell id="_vykkSeHL0QJ4ZjWRuhM-39" value="1" style="text;html=1;align=center;verticalAlign=middle;resizable=0;points=[];autosize=1;strokeColor=none;fillColor=none;" parent="1" vertex="1">
          <mxGeometry x="260" y="390" width="30" height="30" as="geometry" />
        </mxCell>
        <mxCell id="Tk6zy6pVGiUUt2ci_Hb9-2" value="&lt;div&gt;Чат&lt;/div&gt;" style="rounded=0;whiteSpace=wrap;html=1;" parent="1" vertex="1">
          <mxGeometry x="-260" y="390" width="120" height="60" as="geometry" />
        </mxCell>
        <mxCell id="Tk6zy6pVGiUUt2ci_Hb9-3" value="Имеет" style="rhombus;whiteSpace=wrap;html=1;" parent="1" vertex="1">
          <mxGeometry x="-100" y="380" width="80" height="80" as="geometry" />
        </mxCell>
        <mxCell id="Tk6zy6pVGiUUt2ci_Hb9-4" value="" style="endArrow=none;html=1;rounded=0;entryX=0;entryY=0.5;entryDx=0;entryDy=0;exitX=1;exitY=0.5;exitDx=0;exitDy=0;" parent="1" source="Tk6zy6pVGiUUt2ci_Hb9-3" target="_vykkSeHL0QJ4ZjWRuhM-4" edge="1">
          <mxGeometry width="50" height="50" relative="1" as="geometry">
            <mxPoint x="-70" y="460" as="sourcePoint" />
            <mxPoint x="-20" y="410" as="targetPoint" />
          </mxGeometry>
        </mxCell>
        <mxCell id="Tk6zy6pVGiUUt2ci_Hb9-5" value="" style="endArrow=none;html=1;rounded=0;entryX=0;entryY=0.5;entryDx=0;entryDy=0;exitX=1;exitY=0.5;exitDx=0;exitDy=0;" parent="1" source="Tk6zy6pVGiUUt2ci_Hb9-2" target="Tk6zy6pVGiUUt2ci_Hb9-3" edge="1">
          <mxGeometry width="50" height="50" relative="1" as="geometry">
            <mxPoint x="-10" y="430" as="sourcePoint" />
            <mxPoint x="30" y="430" as="targetPoint" />
          </mxGeometry>
        </mxCell>
        <mxCell id="Tk6zy6pVGiUUt2ci_Hb9-6" value="1" style="text;html=1;align=center;verticalAlign=middle;resizable=0;points=[];autosize=1;strokeColor=none;fillColor=none;" parent="1" vertex="1">
          <mxGeometry x="-30" y="400" width="30" height="30" as="geometry" />
        </mxCell>
        <mxCell id="Tk6zy6pVGiUUt2ci_Hb9-7" value="1" style="text;html=1;align=center;verticalAlign=middle;resizable=0;points=[];autosize=1;strokeColor=none;fillColor=none;" parent="1" vertex="1">
          <mxGeometry x="-120" y="400" width="30" height="30" as="geometry" />
        </mxCell>
        <mxCell id="Tk6zy6pVGiUUt2ci_Hb9-9" value="Имеет" style="rhombus;whiteSpace=wrap;html=1;" parent="1" vertex="1">
          <mxGeometry x="-380" y="380" width="80" height="80" as="geometry" />
        </mxCell>
        <mxCell id="Tk6zy6pVGiUUt2ci_Hb9-10" value="" style="endArrow=none;html=1;rounded=0;exitX=1;exitY=0.5;exitDx=0;exitDy=0;entryX=0;entryY=0.5;entryDx=0;entryDy=0;" parent="1" source="Tk6zy6pVGiUUt2ci_Hb9-9" target="Tk6zy6pVGiUUt2ci_Hb9-2" edge="1">
          <mxGeometry width="50" height="50" relative="1" as="geometry">
            <mxPoint x="-350" y="460" as="sourcePoint" />
            <mxPoint x="-290" y="440" as="targetPoint" />
          </mxGeometry>
        </mxCell>
        <mxCell id="Tk6zy6pVGiUUt2ci_Hb9-11" value="" style="endArrow=none;html=1;rounded=0;entryX=0;entryY=0.5;entryDx=0;entryDy=0;exitX=1;exitY=0.5;exitDx=0;exitDy=0;" parent="1" source="Tk6zy6pVGiUUt2ci_Hb9-15" target="Tk6zy6pVGiUUt2ci_Hb9-9" edge="1">
          <mxGeometry width="50" height="50" relative="1" as="geometry">
            <mxPoint x="-420" y="420" as="sourcePoint" />
            <mxPoint x="-250" y="430" as="targetPoint" />
          </mxGeometry>
        </mxCell>
        <mxCell id="Tk6zy6pVGiUUt2ci_Hb9-12" value="1" style="text;html=1;align=center;verticalAlign=middle;resizable=0;points=[];autosize=1;strokeColor=none;fillColor=none;" parent="1" vertex="1">
          <mxGeometry x="-310" y="400" width="30" height="30" as="geometry" />
        </mxCell>
        <mxCell id="Tk6zy6pVGiUUt2ci_Hb9-13" value="1" style="text;html=1;align=center;verticalAlign=middle;resizable=0;points=[];autosize=1;strokeColor=none;fillColor=none;" parent="1" vertex="1">
          <mxGeometry x="-400" y="400" width="30" height="30" as="geometry" />
        </mxCell>
        <mxCell id="Tk6zy6pVGiUUt2ci_Hb9-15" value="История сообщений" style="rounded=0;whiteSpace=wrap;html=1;" parent="1" vertex="1">
          <mxGeometry x="-540" y="390" width="120" height="60" as="geometry" />
        </mxCell>
        <mxCell id="Tk6zy6pVGiUUt2ci_Hb9-16" value="Сообщение" style="rounded=0;whiteSpace=wrap;html=1;" parent="1" vertex="1">
          <mxGeometry x="-540" y="590" width="120" height="60" as="geometry" />
        </mxCell>
        <mxCell id="Tk6zy6pVGiUUt2ci_Hb9-17" value="Состоит из" style="rhombus;whiteSpace=wrap;html=1;" parent="1" vertex="1">
          <mxGeometry x="-520" y="480" width="80" height="80" as="geometry" />
        </mxCell>
        <mxCell id="Tk6zy6pVGiUUt2ci_Hb9-19" value="" style="endArrow=none;html=1;rounded=0;entryX=0.5;entryY=0;entryDx=0;entryDy=0;exitX=0.5;exitY=1;exitDx=0;exitDy=0;" parent="1" source="Tk6zy6pVGiUUt2ci_Hb9-15" target="Tk6zy6pVGiUUt2ci_Hb9-17" edge="1">
          <mxGeometry width="50" height="50" relative="1" as="geometry">
            <mxPoint x="-410" y="430" as="sourcePoint" />
            <mxPoint x="-370" y="430" as="targetPoint" />
          </mxGeometry>
        </mxCell>
        <mxCell id="Tk6zy6pVGiUUt2ci_Hb9-20" value="" style="endArrow=none;html=1;rounded=0;entryX=0.5;entryY=0;entryDx=0;entryDy=0;exitX=0.5;exitY=1;exitDx=0;exitDy=0;" parent="1" source="Tk6zy6pVGiUUt2ci_Hb9-17" target="Tk6zy6pVGiUUt2ci_Hb9-16" edge="1">
          <mxGeometry width="50" height="50" relative="1" as="geometry">
            <mxPoint x="-400" y="440" as="sourcePoint" />
            <mxPoint x="-360" y="440" as="targetPoint" />
          </mxGeometry>
        </mxCell>
        <mxCell id="Tk6zy6pVGiUUt2ci_Hb9-21" value="Время отправки" style="ellipse;whiteSpace=wrap;html=1;" parent="1" vertex="1">
          <mxGeometry x="-540" y="680" width="120" height="80" as="geometry" />
        </mxCell>
        <mxCell id="Tk6zy6pVGiUUt2ci_Hb9-22" value="&lt;div&gt;Текст&lt;/div&gt;" style="ellipse;whiteSpace=wrap;html=1;" parent="1" vertex="1">
          <mxGeometry x="-680" y="680" width="120" height="80" as="geometry" />
        </mxCell>
        <mxCell id="Tk6zy6pVGiUUt2ci_Hb9-23" value="Автор" style="ellipse;whiteSpace=wrap;html=1;" parent="1" vertex="1">
          <mxGeometry x="-400" y="680" width="120" height="80" as="geometry" />
        </mxCell>
        <mxCell id="Tk6zy6pVGiUUt2ci_Hb9-24" value="" style="endArrow=none;html=1;rounded=0;entryX=0.5;entryY=0;entryDx=0;entryDy=0;exitX=0.5;exitY=1;exitDx=0;exitDy=0;" parent="1" source="Tk6zy6pVGiUUt2ci_Hb9-16" target="Tk6zy6pVGiUUt2ci_Hb9-21" edge="1">
          <mxGeometry width="50" height="50" relative="1" as="geometry">
            <mxPoint x="-460" y="660" as="sourcePoint" />
            <mxPoint x="-470" y="600" as="targetPoint" />
          </mxGeometry>
        </mxCell>
        <mxCell id="Tk6zy6pVGiUUt2ci_Hb9-26" value="" style="endArrow=none;html=1;rounded=0;entryX=0.5;entryY=0;entryDx=0;entryDy=0;exitX=0.5;exitY=1;exitDx=0;exitDy=0;" parent="1" source="Tk6zy6pVGiUUt2ci_Hb9-16" target="Tk6zy6pVGiUUt2ci_Hb9-23" edge="1">
          <mxGeometry width="50" height="50" relative="1" as="geometry">
            <mxPoint x="-470" y="660" as="sourcePoint" />
            <mxPoint x="-470" y="690" as="targetPoint" />
          </mxGeometry>
        </mxCell>
        <mxCell id="Tk6zy6pVGiUUt2ci_Hb9-27" value="" style="endArrow=none;html=1;rounded=0;entryX=0.5;entryY=0;entryDx=0;entryDy=0;exitX=0.5;exitY=1;exitDx=0;exitDy=0;" parent="1" source="Tk6zy6pVGiUUt2ci_Hb9-16" target="Tk6zy6pVGiUUt2ci_Hb9-22" edge="1">
          <mxGeometry width="50" height="50" relative="1" as="geometry">
            <mxPoint x="-470" y="660" as="sourcePoint" />
            <mxPoint x="-330" y="690" as="targetPoint" />
          </mxGeometry>
        </mxCell>
        <mxCell id="OOXVT4dD8RTD4SABgN8W-1" value="Имя" style="ellipse;whiteSpace=wrap;html=1;" parent="1" vertex="1">
          <mxGeometry x="500" y="480" width="120" height="80" as="geometry" />
        </mxCell>
        <mxCell id="OOXVT4dD8RTD4SABgN8W-2" value="" style="endArrow=none;html=1;rounded=0;entryX=0.5;entryY=1;entryDx=0;entryDy=0;exitX=0.5;exitY=0;exitDx=0;exitDy=0;" parent="1" source="OOXVT4dD8RTD4SABgN8W-1" target="_vykkSeHL0QJ4ZjWRuhM-3" edge="1">
          <mxGeometry width="50" height="50" relative="1" as="geometry">
            <mxPoint x="390" y="480" as="sourcePoint" />
            <mxPoint x="440" y="430" as="targetPoint" />
          </mxGeometry>
        </mxCell>
      </root>
    </mxGraphModel>
  </diagram>
</mxfile>
